<?xml version="1.0" encoding="iso-8859-1"?>
<!-- Generator: Adobe Illustrator 18.1.1, SVG Export Plug-In . SVG Version: 6.00 Build 0)  -->
<svg version="1.1" id="Capa_1" xmlns="http://www.w3.org/2000/svg" xmlns:xlink="http://www.w3.org/1999/xlink" x="0px" y="0px"
	 viewBox="0 0 48.821 48.821" style="enable-background:new 0 0 48.821 48.821;" xml:space="preserve">
<g>
	<g>
		<path style="fill:#010002;" d="M46.482,0H2.338C1.047,0,0,1.048,0,2.337v44.146c0,1.29,1.047,2.337,2.338,2.337h44.145
			c1.291,0,2.338-1.047,2.338-2.337V2.337C48.82,1.048,47.773,0,46.482,0z M44.146,4.674v5.989H4.674V4.674
			C4.674,4.674,44.146,4.674,44.146,4.674z M4.674,44.145V15.339h39.472v28.808H4.674V44.145z"/>
		<rect x="6.07" y="6.264" style="fill:#010002;" width="3.506" height="3.505"/>
		<rect x="11.328" y="6.264" style="fill:#010002;" width="3.506" height="3.505"/>
		<rect x="16.587" y="6.264" style="fill:#010002;" width="3.505" height="3.505"/>
	</g>
</g>
<g>
</g>
<g>
</g>
<g>
</g>
<g>
</g>
<g>
</g>
<g>
</g>
<g>
</g>
<g>
</g>
<g>
</g>
<g>
</g>
<g>
</g>
<g>
</g>
<g>
</g>
<g>
</g>
<g>
</g>
</svg>
